<svg xmlns="http://www.w3.org/2000/svg" width="96.167" height="51.131" viewBox="0 0 96.167 51.131">
  <g id="Group_1" data-name="Group 1" transform="translate(-284.624 -728.037)">
    <path id="Path_1" data-name="Path 1" d="M335.764,761.441a21.154,21.154,0,0,1,1.766,3.676l.148.3a2.059,2.059,0,0,0,1.833.776h.2l.384.654,1.038-.185a2.445,2.445,0,0,0,2.391-2.409,3.773,3.773,0,0,0-.229-1.9l.092-.2-.392-.547c-.262-.373-.528-.839-.765-1.234s-.333-.569-.4-.654c-1.725-3.266-2.612-6.174-1.866-10.25,11.5,3.115,28.679,8.007,32.389,9.647a14.306,14.306,0,0,1-7.434,7.741,4.653,4.653,0,0,1-1.522.251c-1.241.085-2.9.2-3.99,1.526-.975.337-1.463.935-1.962,2.295l-.059.2s-.458,2.775.968,3.37a.945.945,0,0,0,.3.085,1.7,1.7,0,0,0,1.426.92h.17a.978.978,0,0,0,.307.085h.207a1.3,1.3,0,0,0,1.138-.842,11.007,11.007,0,0,0,1.308-.462,14.575,14.575,0,0,0,5.879-2.927,3.751,3.751,0,0,1,.817-.118h.406l.284-.2c9.651-6.754,12.681-17.41,8.11-28.531-4.312-10.028-15.3-16.084-25.557-14.088-.5.078-1,.14-1.5.207-2.612.333-5.5.706-7.84,3.477-5.317,3.514-8.683,8.165-9.976,13.615v.137l-.041.17a25.434,25.434,0,0,0,.288,11.542A14.824,14.824,0,0,0,335.764,761.441Zm38.892-21.921a26.588,26.588,0,0,0-12.411-8.65A18.944,18.944,0,0,1,374.656,739.52Zm-25.7-2.9c4.227-2.235,7.578-2.845,10.227-1.862l.24.059a15.651,15.651,0,0,1,11.262,6.762,18.485,18.485,0,0,1,3.266,11.561c-11.288-3.251-27.818-8.114-31.986-9.655A20.116,20.116,0,0,1,348.955,736.615Zm17.159,18.773c-9.47-2.653-23.333-6.643-26.976-8.258C341.938,747.267,356.548,752.123,366.114,755.389Zm-70.283,16.845c.5.318,1.016.691,1.541,1.071,1.615,1.175,3.528,2.564,5.579,2.564a4.357,4.357,0,0,0,1.607-.3,1.178,1.178,0,0,0,1.4-.373l.074-.1a4.837,4.837,0,0,0,.65-.8l.654.2c-.144.163.273.1.129.1.458,0,.133,0,.388-.307.469-.547.373-1.134.092-2.878l-.033-.151c-.2-.654-.961-2.823-2.379-2.823h0a1.381,1.381,0,0,0-.909.354,13.276,13.276,0,0,1-1.352-.654,8.226,8.226,0,0,0-3.377-1.1,15.744,15.744,0,0,1-6.906-7.186c2.294-.824,7.737-2.757,13.519-4.7,8.369-2.505,14.255-4.253,17.41-5.169a13.111,13.111,0,0,1,1.3-.2,17.219,17.219,0,0,1-1.873,10.5,9.214,9.214,0,0,1-1.456,1.9,16.159,16.159,0,0,0-1.962,2.516l-.07.059c-.713.58-.728,1-.78,2.257v.55l.048.373a2.958,2.958,0,0,0,2.036,2.291h.133a2.613,2.613,0,0,0,.927,0,2.076,2.076,0,0,0,1.463-.964l.067-.081.717.185c2.509-2.357,4.777-6.632,5.742-8.454l.2-.384c4.109-10.63-.521-24.423-9.525-28.439l-.325-.144c-2.416-1.481-5.136-3.2-8.616-3.085a2.386,2.386,0,0,0-1.607.525,1.674,1.674,0,0,0-.525.3l-.654.281a3.922,3.922,0,0,0-.65,2.837l.044.247c.432,1.43.986,2.764,2.176,2.849a1.5,1.5,0,0,0,1.208-.484h.824l.436.266a6.979,6.979,0,0,0,2.993,1.23l.247.214a15.908,15.908,0,0,1,6.828,6.924c-20.717,5.594-28.823,8.1-32.012,9.415-.248-2.967.333-5.557,2-9.418.163-.3.325-.62.5-.968.432-.843,1.437-2.823,1.921-2.986l.85-.307a4.057,4.057,0,0,0,1-2.615,1.784,1.784,0,0,0-.155-.854,1.453,1.453,0,0,0-.9-.909,1.857,1.857,0,0,0-1.3-1.249,1.413,1.413,0,0,0-.587,0l-.1-.07a.544.544,0,0,1,.2.044.856.856,0,0,1-.126-.078,1.752,1.752,0,0,0-1.633-.273,2.027,2.027,0,0,0-1.1,1.43,20.613,20.613,0,0,0-5.638,8.591C282.031,754.69,286.442,767.692,295.831,772.234Zm10.49-1.877Zm0,3.92h-.129a.772.772,0,0,0-.041-.177Zm-.817-.358Zm-1.1.41-.344.747a1.029,1.029,0,0,1-.166-.5,4.2,4.2,0,0,0,.517-.211Zm-.621-3.8a7.6,7.6,0,0,1-3.115-.772,12.8,12.8,0,0,1,3.122.806Zm18.725-1.615.817.211v.144a1,1,0,0,1-.809-.321Zm1.024.314v-.052h.092Zm3.118-21.12v.063a.309.309,0,0,1-.052-.129c.033-.222,0-1.589.059.1Z" transform="translate(0)" fill="#1a1818"/>
    <path id="Path_2" data-name="Path 2" d="M294.235,741.628a1.958,1.958,0,0,1-.044.3,4.488,4.488,0,0,0-.111.536c-.078.307-.111.529-.185.817v.07c-.052.2-.1.388-.163.6s0,.162-.092.328a.2.2,0,0,1-.222.163h-.152a.271.271,0,0,1-.181-.1.419.419,0,0,1-.059-.177,9.379,9.379,0,0,1-.229-1.013,2.989,2.989,0,0,0-.07-.392c-.022-.129-.059-.259-.078-.384l-.033-.407a2.5,2.5,0,0,0-.085-.384,1.159,1.159,0,0,0-.1-.384.52.52,0,0,1-.07-.066h0a.208.208,0,0,1,.078-.129.549.549,0,0,1,.24-.059h.085a.283.283,0,0,1,.277.137,1.794,1.794,0,0,1,.155.5,2.312,2.312,0,0,1,.052.314c0,.177.059.321.074.517a1.9,1.9,0,0,0,0,.207v.355c0,.177.044.351.059.536a7.173,7.173,0,0,0,.248-1.046c0-.177.078-.358.1-.55v-.24c0-.092.048-.181.052-.273a.96.96,0,0,1,.144-.332.422.422,0,0,1,.3-.151h0a.124.124,0,0,1,.122.1h0c0,.107-.052.321-.07.465A1.166,1.166,0,0,0,294.235,741.628Z" transform="translate(20.853 34.673)" fill="#1a1818"/>
    <path id="Path_3" data-name="Path 3" d="M294.948,741h.244v.181c0,.152-.248.17-.355.24h0a.621.621,0,0,1,0,.118v.307a.7.7,0,0,1,0,.126v1.1a2.317,2.317,0,0,1,0,.322,1.177,1.177,0,0,0,0,.163v.377a.582.582,0,0,0,.159,0h.1a.3.3,0,0,1,.085.081.349.349,0,0,1,.078.085v.052a.21.21,0,0,1,.041.1h0c0,.13-.188.137-.325.137h-.432a1.149,1.149,0,0,1-.229,0h-.067a.509.509,0,0,1-.144-.037.908.908,0,0,1-.078-.126.244.244,0,0,0-.037-.155.192.192,0,0,1,0-.092c0-.074.044-.093.14-.093h.192V741.4c0-.018-.066,0-.107,0a.514.514,0,0,1-.148-.3.413.413,0,0,1-.048-.129.164.164,0,0,1,0-.085h.048A4.19,4.19,0,0,0,294.948,741Z" transform="translate(25.209 34.617)" fill="#1a1818"/>
    <path id="Path_4" data-name="Path 4" d="M296.739,741h.3c0,.044-.059.1-.092.163a.491.491,0,0,1-.244.266.686.686,0,0,1-.214.041.412.412,0,0,1-.188-.041c-.033,0-.041-.052-.081-.063v.255h0v.487a1.1,1.1,0,0,1,0,.222h.321a1.476,1.476,0,0,0,.314,0l.085-.037h0v.229h0c0,.148-.155.188-.248.259h0a1.141,1.141,0,0,1-.3.048h-.17c0,.207-.033.443-.033.654v.455a2.031,2.031,0,0,0,.366.033.5.5,0,0,0,.31-.07h0v.181h0v.178a.777.777,0,0,1-.447.155.284.284,0,0,1-.111,0,.1.1,0,0,1-.07-.03h-.3c-.233,0-.318-.255-.377-.473a2.492,2.492,0,0,1-.052-.573V741.5c0-.144,0-.255-.074-.321a1.192,1.192,0,0,0,.107-.188l.059-.041a1.729,1.729,0,0,1,.392-.092h.273A4.3,4.3,0,0,0,296.739,741Z" transform="translate(29.142 34.557)" fill="#1a1818"/>
    <path id="Path_5" data-name="Path 5" d="M298.064,741.673v2.143a2.6,2.6,0,0,0,0,.34.213.213,0,0,1,.041.111c0,.074-.052.126-.155.126h-.055a.561.561,0,0,1-.251-.1c-.074-.048-.159-.107-.17-.166a.089.089,0,0,1,0-.044.547.547,0,0,1,0-.111v-.3a1.637,1.637,0,0,1,0-.192v-.795c0-.432.044-.824.052-1.178a.285.285,0,0,0-.137,0h-.14a.138.138,0,0,1-.078,0,.449.449,0,0,1-.247-.377v-.1a.2.2,0,0,1,0-.066s0-.04.059-.04h1.253a.454.454,0,0,1,.31.159.463.463,0,0,1,.137.144.354.354,0,0,1,.052.181.107.107,0,0,1-.066.118h-.384a.226.226,0,0,0-.185.07C298.012,741.662,298.064,741.673,298.064,741.673Z" transform="translate(33.134 34.705)" fill="#1a1818"/>
    <path id="Path_6" data-name="Path 6" d="M300.564,741c0,.066-.044.125-.052.177a.242.242,0,0,0,0,.1.625.625,0,0,0,0,.118v.044a1.339,1.339,0,0,1,0,.17v.5a.426.426,0,0,1,0,.1v.189a.514.514,0,0,0,0,.107,1.694,1.694,0,0,1,0,.273c0,.185-.019.37-.041.554v.739a1.025,1.025,0,0,0,0,.151.532.532,0,0,1-.085.137.233.233,0,0,1-.2.078h-.144a.512.512,0,0,1-.307-.17c-.044-.059-.089-.144-.137-.214a3.341,3.341,0,0,1-.222-.484c-.155-.425-.262-.916-.425-1.308h0a.636.636,0,0,0,0,.118v1.334a1.566,1.566,0,0,0,0,.263v.273a.148.148,0,0,1-.078.118.336.336,0,0,1-.118.033h-.126c-.052,0-.114,0-.129-.048h0c0-.052.052-.118.059-.162a.274.274,0,0,0,0-.078v-2.387a.935.935,0,0,0,0-.144v-.137h0v-.063a.373.373,0,0,1,.1-.288.259.259,0,0,1,.114-.085.4.4,0,0,1,.144-.1h.067c.066,0,.129.1.17.155a.852.852,0,0,1,.077.1,2.825,2.825,0,0,1,.144.421.872.872,0,0,0,.066.225c.019.07.059.13.085.2a1.966,1.966,0,0,1,.063.322c.055.2.166.38.2.569a6.992,6.992,0,0,0,.251.654,1,1,0,0,0,.044-.329.338.338,0,0,1,0-.085v-.587a.433.433,0,0,1,0-.1v-.942a.159.159,0,0,0,0-.059,1.344,1.344,0,0,1,0-.17v-.059a1.47,1.47,0,0,1,0-.177.372.372,0,0,1,.314-.155h0a.063.063,0,0,1,.052,0h.078A.2.2,0,0,1,300.564,741Z" transform="translate(37.41 34.626)" fill="#1a1818"/>
    <path id="Path_7" data-name="Path 7" d="M301.226,743.563a.478.478,0,0,1-.2-.04c-.126-.07-.152-.207-.211-.325-.063.214-.122.477-.207.743a1.034,1.034,0,0,0-.041.177c0,.129-.059.332-.162.347h-.041c-.1,0-.222-.059-.222-.137a.1.1,0,0,1,0-.048,1.366,1.366,0,0,0,.078-.292l.041-.192c.052-.247.092-.536.151-.817s.1-.513.155-.765a1.315,1.315,0,0,1,.085-.377c.041-.13.092-.34.151-.517a.732.732,0,0,1,.1-.222l.078-.059.126-.1h.044a.344.344,0,0,0,.185-.044h.041a.527.527,0,0,1,.222.052.686.686,0,0,1,.2.332.281.281,0,0,1,.048.078c.041.188.07.377.092.569a6.3,6.3,0,0,0,.07.654,8.033,8.033,0,0,0,.137.861,1.175,1.175,0,0,0,.059.273,2.792,2.792,0,0,0,.059.5v.118a.189.189,0,0,1-.177.2.263.263,0,0,1-.052,0h-.07l-.055-.041h-.052a.439.439,0,0,1-.222-.21c-.085-.214,0-.469-.1-.71A.71.71,0,0,1,301.226,743.563Zm-.166-1.426a5.14,5.14,0,0,0-.2.85c0,.092.133.111.251.111h.377c-.052-.307-.111-.776-.155-1.09a1.742,1.742,0,0,0-.074-.391h0A3.317,3.317,0,0,0,301.06,742.137Z" transform="translate(41.806 34.641)" fill="#1a1818"/>
    <path id="Path_8" data-name="Path 8" d="M303.363,743.144a2.077,2.077,0,0,1-.211.462.189.189,0,0,1-.092,0,.437.437,0,0,1-.181-.044.419.419,0,0,1-.092-.041.978.978,0,0,1-.17-.281c-.044-.1-.07-.2-.118-.314s-.063-.229-.085-.344a4.643,4.643,0,0,0-.089-.477h0v1.3a.7.7,0,0,0,0,.122.244.244,0,0,1,0,.074v.5a.941.941,0,0,0,0,.2h0a.313.313,0,0,1-.255.089.665.665,0,0,1-.17,0s-.092-.044-.1-.07h0l.052-.1a.72.72,0,0,0,0-.251V742.56c0-.384,0-.735.033-1.1,0-.2,0-.384.144-.462s.188-.111.3-.111a.152.152,0,0,1,.1.033.343.343,0,0,1,.111.129.805.805,0,0,1,.092.177,1.128,1.128,0,0,1,.078.222c0,.066.067.118.085.17s0,.155.059.233a1.218,1.218,0,0,1,.067.225v.189a1.4,1.4,0,0,0,0,.177,2.61,2.61,0,0,0,.078.48,2.552,2.552,0,0,0,.129-.444l.111-.462c.059-.229.133-.447.188-.654a.762.762,0,0,1,.166-.358h.085l.063-.048a.428.428,0,0,1,.137,0c.152,0,.251.111.262.3h0v.2a.219.219,0,0,0,0,.07.293.293,0,0,0,0,.081,1.406,1.406,0,0,1,0,.248,2.181,2.181,0,0,0,0,.222h0v1.312h0a1.661,1.661,0,0,1,0,.189v.133a.664.664,0,0,0,0,.122v.34c0,.055.078.085.078.144h0c0,.059-.085.052-.137.085h0a.862.862,0,0,1-.273-.044h0a.469.469,0,0,1-.2-.27v-.174h0a1,1,0,0,0-.044-.355,3.7,3.7,0,0,1,0-.732v-.654A4.385,4.385,0,0,1,303.363,743.144Z" transform="translate(46.287 34.635)" fill="#1a1818"/>
  </g>
</svg>
